<?xml version="1.0" standalone="no"?>
<!DOCTYPE svg PUBLIC "-//W3C//DTD SVG 20010904//EN"
 "http://www.w3.org/TR/2001/REC-SVG-20010904/DTD/svg10.dtd">
<svg version="1.0"
  xmlns="http://www.w3.org/2000/svg" width="512.000000pt" height="512.000000pt" viewBox="0 0 512.000000 512.000000" preserveAspectRatio="xMidYMid meet">

  <g transform="translate(0.000000,512.000000) scale(0.100000,-0.100000)" fill="#E4E6EB" stroke="none">
    <path d="M725 4781 c-50 -23 -101 -79 -116 -130 -16 -55 261 -3655 287 -3719
33 -85 24 -81 849 -355 668 -221 767 -252 820 -251 50 1 180 41 820 254 l760
252 42 43 c32 34 44 55 52 97 5 29 71 864 147 1856 l137 1802 -29 57 c-24 48
-38 62 -83 85 l-53 28 -1797 0 c-1716 0 -1798 -1 -1836 -19z m3065 -1051 l0
-230 -950 0 c-522 0 -950 -3 -950 -7 0 -16 71 -489 75 -500 3 -10 190 -13 890
-13 l885 0 -5 -52 c-3 -29 -26 -370 -51 -758 -25 -388 -46 -706 -48 -707 -5
-6 -1062 -364 -1077 -366 -15 -1 -1027 361 -1041 373 -7 6 -58 648 -58 732 l0
38 270 0 270 0 0 -189 0 -189 303 -75 304 -76 234 76 c129 41 251 80 272 85
20 6 37 13 37 17 0 4 13 128 30 276 16 149 30 280 30 293 l0 22 -895 0 c-867
0 -895 1 -895 19 0 29 -99 1371 -105 1419 l-5 42 1240 0 1240 0 0 -230z"/>
  </g>
</svg>
